<mxfile host="app.diagrams.net" modified="2023-07-15T08:11:18.399Z" agent="Mozilla/5.0 (Windows NT 10.0; Win64; x64) AppleWebKit/537.36 (KHTML, like Gecko) Chrome/114.0.0.0 Safari/537.36 Edg/114.0.1823.79" etag="m8lQAZv2Jm48psD-WF00" version="21.5.0" type="device">
  <diagram name="Page-1" id="7HPhl_dIv62tc0x4QlVU">
    <mxGraphModel dx="851" dy="605" grid="0" gridSize="15" guides="1" tooltips="1" connect="1" arrows="1" fold="1" page="1" pageScale="1" pageWidth="1169" pageHeight="1654" math="0" shadow="0">
      <root>
        <mxCell id="0" />
        <mxCell id="1" parent="0" />
        <mxCell id="UDmfi5O3zSeMwZSJirhx-15" style="edgeStyle=orthogonalEdgeStyle;rounded=0;orthogonalLoop=1;jettySize=auto;html=1;" parent="1" source="UDmfi5O3zSeMwZSJirhx-6" target="UDmfi5O3zSeMwZSJirhx-14" edge="1">
          <mxGeometry relative="1" as="geometry" />
        </mxCell>
        <mxCell id="UDmfi5O3zSeMwZSJirhx-6" value="Users" style="sketch=0;outlineConnect=0;gradientColor=none;fontColor=#545B64;strokeColor=none;fillColor=#879196;dashed=0;verticalLabelPosition=bottom;verticalAlign=top;align=center;html=1;fontSize=12;fontStyle=0;aspect=fixed;shape=mxgraph.aws4.illustration_users;pointerEvents=1" parent="1" vertex="1">
          <mxGeometry x="20" y="120" width="100" height="100" as="geometry" />
        </mxCell>
        <mxCell id="UDmfi5O3zSeMwZSJirhx-7" value="AWS Cloud" style="points=[[0,0],[0.25,0],[0.5,0],[0.75,0],[1,0],[1,0.25],[1,0.5],[1,0.75],[1,1],[0.75,1],[0.5,1],[0.25,1],[0,1],[0,0.75],[0,0.5],[0,0.25]];outlineConnect=0;gradientColor=none;html=1;whiteSpace=wrap;fontSize=12;fontStyle=0;container=1;pointerEvents=0;collapsible=0;recursiveResize=0;shape=mxgraph.aws4.group;grIcon=mxgraph.aws4.group_aws_cloud_alt;strokeColor=#232F3E;fillColor=none;verticalAlign=top;align=left;spacingLeft=30;fontColor=#232F3E;dashed=0;" parent="1" vertex="1">
          <mxGeometry x="400" y="260" width="390" height="310" as="geometry" />
        </mxCell>
        <mxCell id="UDmfi5O3zSeMwZSJirhx-2" value="Lambda" style="sketch=0;points=[[0,0,0],[0.25,0,0],[0.5,0,0],[0.75,0,0],[1,0,0],[0,1,0],[0.25,1,0],[0.5,1,0],[0.75,1,0],[1,1,0],[0,0.25,0],[0,0.5,0],[0,0.75,0],[1,0.25,0],[1,0.5,0],[1,0.75,0]];outlineConnect=0;fontColor=#232F3E;gradientColor=#F78E04;gradientDirection=north;fillColor=#D05C17;strokeColor=#ffffff;dashed=0;verticalLabelPosition=bottom;verticalAlign=top;align=center;html=1;fontSize=12;fontStyle=0;aspect=fixed;shape=mxgraph.aws4.resourceIcon;resIcon=mxgraph.aws4.lambda;" parent="UDmfi5O3zSeMwZSJirhx-7" vertex="1">
          <mxGeometry x="251.5" y="101.5" width="87" height="87" as="geometry" />
        </mxCell>
        <mxCell id="UDmfi5O3zSeMwZSJirhx-20" style="edgeStyle=orthogonalEdgeStyle;rounded=0;orthogonalLoop=1;jettySize=auto;html=1;entryX=0;entryY=0.5;entryDx=0;entryDy=0;entryPerimeter=0;" parent="UDmfi5O3zSeMwZSJirhx-7" source="UDmfi5O3zSeMwZSJirhx-10" target="UDmfi5O3zSeMwZSJirhx-2" edge="1">
          <mxGeometry relative="1" as="geometry" />
        </mxCell>
        <mxCell id="UDmfi5O3zSeMwZSJirhx-10" value="API Gateway" style="outlineConnect=0;dashed=0;verticalLabelPosition=bottom;verticalAlign=top;align=center;html=1;shape=mxgraph.aws3.api_gateway;fillColor=#D9A741;gradientColor=none;" parent="UDmfi5O3zSeMwZSJirhx-7" vertex="1">
          <mxGeometry x="51.5" y="98" width="76.5" height="94" as="geometry" />
        </mxCell>
        <mxCell id="UDmfi5O3zSeMwZSJirhx-28" value="4" style="ellipse;whiteSpace=wrap;html=1;aspect=fixed;fillColor=#dae8fc;strokeColor=#6c8ebf;" parent="UDmfi5O3zSeMwZSJirhx-7" vertex="1">
          <mxGeometry x="170" y="98" width="40" height="40" as="geometry" />
        </mxCell>
        <mxCell id="UDmfi5O3zSeMwZSJirhx-36" value="10" style="ellipse;whiteSpace=wrap;html=1;aspect=fixed;fillColor=#dae8fc;strokeColor=#6c8ebf;" parent="UDmfi5O3zSeMwZSJirhx-7" vertex="1">
          <mxGeometry x="172" y="240" width="40" height="40" as="geometry" />
        </mxCell>
        <mxCell id="UDmfi5O3zSeMwZSJirhx-27" value="3" style="ellipse;whiteSpace=wrap;html=1;aspect=fixed;fillColor=#dae8fc;strokeColor=#6c8ebf;" parent="UDmfi5O3zSeMwZSJirhx-7" vertex="1">
          <mxGeometry x="-20" y="98" width="40" height="40" as="geometry" />
        </mxCell>
        <mxCell id="UDmfi5O3zSeMwZSJirhx-18" style="edgeStyle=orthogonalEdgeStyle;rounded=0;orthogonalLoop=1;jettySize=auto;html=1;entryX=0.5;entryY=0;entryDx=0;entryDy=0;" parent="1" source="UDmfi5O3zSeMwZSJirhx-14" target="UDmfi5O3zSeMwZSJirhx-17" edge="1">
          <mxGeometry relative="1" as="geometry" />
        </mxCell>
        <mxCell id="UDmfi5O3zSeMwZSJirhx-14" value="Devices" style="sketch=0;outlineConnect=0;gradientColor=none;fontColor=#545B64;strokeColor=none;fillColor=#879196;dashed=0;verticalLabelPosition=bottom;verticalAlign=top;align=center;html=1;fontSize=12;fontStyle=0;aspect=fixed;shape=mxgraph.aws4.illustration_devices;pointerEvents=1" parent="1" vertex="1">
          <mxGeometry x="220" y="133.5" width="100" height="73" as="geometry" />
        </mxCell>
        <mxCell id="UDmfi5O3zSeMwZSJirhx-19" style="edgeStyle=orthogonalEdgeStyle;rounded=0;orthogonalLoop=1;jettySize=auto;html=1;" parent="1" source="UDmfi5O3zSeMwZSJirhx-17" target="UDmfi5O3zSeMwZSJirhx-10" edge="1">
          <mxGeometry relative="1" as="geometry" />
        </mxCell>
        <mxCell id="UDmfi5O3zSeMwZSJirhx-17" value="Discord Bot" style="shape=image;verticalLabelPosition=bottom;labelBackgroundColor=default;verticalAlign=top;aspect=fixed;imageAspect=0;image=https://cdn3.iconfinder.com/data/icons/popular-services-brands-vol-2/512/discord-512.png;" parent="1" vertex="1">
          <mxGeometry x="222.38" y="356.75" width="95.25" height="95.25" as="geometry" />
        </mxCell>
        <mxCell id="UDmfi5O3zSeMwZSJirhx-25" value="1" style="ellipse;whiteSpace=wrap;html=1;aspect=fixed;fillColor=#dae8fc;strokeColor=#6c8ebf;" parent="1" vertex="1">
          <mxGeometry x="150" y="120" width="40" height="40" as="geometry" />
        </mxCell>
        <mxCell id="UDmfi5O3zSeMwZSJirhx-26" value="2" style="ellipse;whiteSpace=wrap;html=1;aspect=fixed;fillColor=#dae8fc;strokeColor=#6c8ebf;" parent="1" vertex="1">
          <mxGeometry x="220" y="270" width="40" height="40" as="geometry" />
        </mxCell>
        <mxCell id="UDmfi5O3zSeMwZSJirhx-32" value="" style="edgeStyle=orthogonalEdgeStyle;html=1;endArrow=block;elbow=vertical;startArrow=none;endFill=1;strokeColor=#545B64;rounded=0;dashed=1;entryX=0;entryY=0.5;entryDx=0;entryDy=0;" parent="1" source="UDmfi5O3zSeMwZSJirhx-2" target="UDmfi5O3zSeMwZSJirhx-17" edge="1">
          <mxGeometry width="100" relative="1" as="geometry">
            <mxPoint x="580" y="530" as="sourcePoint" />
            <mxPoint x="40" y="405" as="targetPoint" />
            <Array as="points">
              <mxPoint x="695" y="550" />
              <mxPoint x="100" y="550" />
              <mxPoint x="100" y="404" />
            </Array>
          </mxGeometry>
        </mxCell>
        <mxCell id="UDmfi5O3zSeMwZSJirhx-35" value="" style="edgeStyle=orthogonalEdgeStyle;html=1;endArrow=block;elbow=vertical;startArrow=none;endFill=1;strokeColor=#545B64;rounded=0;dashed=1;" parent="1" source="UDmfi5O3zSeMwZSJirhx-17" target="UDmfi5O3zSeMwZSJirhx-14" edge="1">
          <mxGeometry width="100" relative="1" as="geometry">
            <mxPoint x="360" y="370" as="sourcePoint" />
            <mxPoint x="460" y="370" as="targetPoint" />
            <Array as="points">
              <mxPoint x="290" y="282" />
              <mxPoint x="290" y="282" />
            </Array>
          </mxGeometry>
        </mxCell>
        <mxCell id="UDmfi5O3zSeMwZSJirhx-37" value="12" style="ellipse;whiteSpace=wrap;html=1;aspect=fixed;fillColor=#dae8fc;strokeColor=#6c8ebf;" parent="1" vertex="1">
          <mxGeometry x="300" y="270" width="40" height="40" as="geometry" />
        </mxCell>
        <mxCell id="UDmfi5O3zSeMwZSJirhx-38" value="" style="edgeStyle=orthogonalEdgeStyle;html=1;endArrow=none;elbow=vertical;startArrow=block;startFill=1;strokeColor=#545B64;rounded=0;dashed=1;" parent="1" source="UDmfi5O3zSeMwZSJirhx-6" target="UDmfi5O3zSeMwZSJirhx-14" edge="1">
          <mxGeometry width="100" relative="1" as="geometry">
            <mxPoint x="110" y="200" as="sourcePoint" />
            <mxPoint x="210" y="200" as="targetPoint" />
            <Array as="points">
              <mxPoint x="180" y="190" />
              <mxPoint x="180" y="190" />
            </Array>
          </mxGeometry>
        </mxCell>
        <mxCell id="UDmfi5O3zSeMwZSJirhx-39" value="13" style="ellipse;whiteSpace=wrap;html=1;aspect=fixed;fillColor=#dae8fc;strokeColor=#6c8ebf;" parent="1" vertex="1">
          <mxGeometry x="150" y="200" width="40" height="40" as="geometry" />
        </mxCell>
        <mxCell id="YFMJil6Kx04KTpM-6Q5P-1" value="11" style="ellipse;whiteSpace=wrap;html=1;aspect=fixed;fillColor=#dae8fc;strokeColor=#6c8ebf;" parent="1" vertex="1">
          <mxGeometry x="380" y="500" width="40" height="40" as="geometry" />
        </mxCell>
        <mxCell id="1VUpw42Oq2MV7F-yLpDW-3" style="edgeStyle=orthogonalEdgeStyle;rounded=0;orthogonalLoop=1;jettySize=auto;html=1;entryX=0;entryY=0.5;entryDx=0;entryDy=0;" parent="1" target="1VUpw42Oq2MV7F-yLpDW-13" edge="1">
          <mxGeometry relative="1" as="geometry">
            <mxPoint x="744" y="403.96" as="sourcePoint" />
            <mxPoint x="868" y="403.96" as="targetPoint" />
          </mxGeometry>
        </mxCell>
        <mxCell id="1VUpw42Oq2MV7F-yLpDW-13" value="OpenAI" style="shape=image;verticalLabelPosition=bottom;labelBackgroundColor=default;verticalAlign=top;aspect=fixed;imageAspect=0;image=https://static-00.iconduck.com/assets.00/openai-icon-2021x2048-4rpe5x7n.png;" parent="1" vertex="1">
          <mxGeometry x="881" y="353.71" width="100" height="101.34" as="geometry" />
        </mxCell>
        <mxCell id="1VUpw42Oq2MV7F-yLpDW-21" value="" style="edgeStyle=orthogonalEdgeStyle;html=1;endArrow=block;elbow=vertical;startArrow=none;endFill=1;strokeColor=#545B64;rounded=0;dashed=1;exitX=0;exitY=0.75;exitDx=0;exitDy=0;" parent="1" source="1VUpw42Oq2MV7F-yLpDW-13" edge="1">
          <mxGeometry width="100" relative="1" as="geometry">
            <mxPoint x="816" y="569" as="sourcePoint" />
            <mxPoint x="738" y="430" as="targetPoint" />
          </mxGeometry>
        </mxCell>
        <mxCell id="1VUpw42Oq2MV7F-yLpDW-23" value="7" style="ellipse;whiteSpace=wrap;html=1;aspect=fixed;fillColor=#dae8fc;strokeColor=#6c8ebf;" parent="1" vertex="1">
          <mxGeometry x="771" y="356.75" width="40" height="40" as="geometry" />
        </mxCell>
        <mxCell id="1VUpw42Oq2MV7F-yLpDW-24" value="8" style="ellipse;whiteSpace=wrap;html=1;aspect=fixed;fillColor=#dae8fc;strokeColor=#6c8ebf;" parent="1" vertex="1">
          <mxGeometry x="774" y="440" width="40" height="40" as="geometry" />
        </mxCell>
        <mxCell id="G6kpIKbpWDbCSVv648nL-2" value="DynamoDB" style="sketch=0;points=[[0,0,0],[0.25,0,0],[0.5,0,0],[0.75,0,0],[1,0,0],[0,1,0],[0.25,1,0],[0.5,1,0],[0.75,1,0],[1,1,0],[0,0.25,0],[0,0.5,0],[0,0.75,0],[1,0.25,0],[1,0.5,0],[1,0.75,0]];outlineConnect=0;fontColor=#232F3E;gradientColor=#4D72F3;gradientDirection=north;fillColor=#3334B9;strokeColor=#ffffff;dashed=0;verticalLabelPosition=bottom;verticalAlign=top;align=center;html=1;fontSize=12;fontStyle=0;aspect=fixed;shape=mxgraph.aws4.resourceIcon;resIcon=mxgraph.aws4.dynamodb;" vertex="1" parent="1">
          <mxGeometry x="881" y="128" width="100" height="100" as="geometry" />
        </mxCell>
        <mxCell id="G6kpIKbpWDbCSVv648nL-1" style="edgeStyle=orthogonalEdgeStyle;rounded=0;orthogonalLoop=1;jettySize=auto;html=1;exitX=0.5;exitY=0;exitDx=0;exitDy=0;exitPerimeter=0;" edge="1" parent="1" source="UDmfi5O3zSeMwZSJirhx-2" target="G6kpIKbpWDbCSVv648nL-2">
          <mxGeometry relative="1" as="geometry">
            <mxPoint x="723" y="242" as="sourcePoint" />
            <mxPoint x="865" y="187" as="targetPoint" />
            <Array as="points">
              <mxPoint x="695" y="180" />
            </Array>
          </mxGeometry>
        </mxCell>
        <mxCell id="G6kpIKbpWDbCSVv648nL-3" value="" style="edgeStyle=orthogonalEdgeStyle;html=1;endArrow=block;elbow=vertical;startArrow=none;endFill=1;strokeColor=#545B64;rounded=0;dashed=1;exitX=0;exitY=0.75;exitDx=0;exitDy=0;" edge="1" parent="1">
          <mxGeometry width="100" relative="1" as="geometry">
            <mxPoint x="881" y="206.5" as="sourcePoint" />
            <mxPoint x="716" y="362" as="targetPoint" />
            <Array as="points">
              <mxPoint x="881" y="199" />
              <mxPoint x="716" y="199" />
              <mxPoint x="716" y="362" />
            </Array>
          </mxGeometry>
        </mxCell>
        <mxCell id="G6kpIKbpWDbCSVv648nL-4" value="READ: 5&lt;br&gt;WRITE: 9" style="ellipse;whiteSpace=wrap;html=1;aspect=fixed;fillColor=#dae8fc;strokeColor=#6c8ebf;" vertex="1" parent="1">
          <mxGeometry x="763" y="112" width="56" height="56" as="geometry" />
        </mxCell>
        <mxCell id="G6kpIKbpWDbCSVv648nL-8" value="6" style="ellipse;whiteSpace=wrap;html=1;aspect=fixed;fillColor=#dae8fc;strokeColor=#6c8ebf;" vertex="1" parent="1">
          <mxGeometry x="767" y="206.5" width="40" height="40" as="geometry" />
        </mxCell>
      </root>
    </mxGraphModel>
  </diagram>
</mxfile>
